<?xml version="1.0" standalone="no"?>
<!DOCTYPE svg PUBLIC "-//W3C//DTD SVG 20010904//EN"
 "http://www.w3.org/TR/2001/REC-SVG-20010904/DTD/svg10.dtd">
<svg version="1.0" xmlns="http://www.w3.org/2000/svg"
 width="459.000000pt" height="89.000000pt" viewBox="0 0 459.000000 89.000000"
 preserveAspectRatio="xMidYMid meet">

<g transform="translate(0.000000,89.000000) scale(0.100000,-0.100000)"
fill="#000000" stroke="none">
<path d="M295 651 c-115 -54 -162 -189 -105 -306 28 -58 38 -68 105 -100 57
-28 101 -32 132 -10 11 8 35 51 53 95 18 45 38 87 44 93 6 7 27 45 46 85 19
41 38 76 43 79 4 2 28 -38 52 -90 39 -82 48 -94 66 -90 26 7 23 20 -41 156
-63 133 -75 137 -120 40 -18 -37 -35 -70 -40 -73 -4 -3 -33 -59 -63 -125 -67
-143 -79 -154 -141 -131 -41 16 -96 76 -96 106 0 5 -4 10 -10 10 -14 0 -12
108 3 127 6 9 31 35 54 59 44 45 64 52 163 57 43 1 56 6 58 20 3 15 -6 17 -80
17 -60 0 -94 -6 -123 -19z"/>
<path d="M2907 649 c-15 -9 -17 -18 -13 -44 5 -22 2 -36 -9 -45 -19 -15 -20
-54 -2 -69 8 -6 39 -10 70 -8 55 2 69 9 47 22 -6 3 -7 18 -4 32 6 22 4 24 -14
19 -28 -9 -37 9 -18 36 20 28 20 33 0 52 -18 19 -32 20 -57 5z m43 -34 c0 -8
-7 -15 -15 -15 -8 0 -15 7 -15 15 0 8 7 15 15 15 8 0 15 -7 15 -15z m-6 -80
c15 -23 15 -26 1 -31 -23 -9 -45 3 -45 24 0 39 21 42 44 7z"/>
<path d="M1240 581 c0 -72 -13 -98 -35 -68 -15 21 -35 22 -35 3 0 -20 39 -46
59 -39 31 11 41 36 41 105 0 54 -3 68 -15 68 -12 0 -15 -14 -15 -69z"/>
<path d="M2300 624 c0 -21 -4 -24 -20 -19 -49 16 -87 -52 -56 -100 13 -20 25
-25 61 -25 l45 0 0 85 c0 69 -3 85 -15 85 -9 0 -15 -10 -15 -26z m-2 -87 c-2
-27 -7 -32 -28 -32 -20 0 -26 6 -28 28 -5 38 14 60 40 46 14 -8 18 -19 16 -42z"/>
<path d="M2480 581 c0 -72 -13 -98 -35 -68 -7 10 -17 17 -24 17 -20 0 -12 -29
14 -46 23 -15 27 -15 50 0 23 15 25 23 25 91 0 60 -3 75 -15 75 -12 0 -15 -14
-15 -69z"/>
<path d="M2540 565 c0 -69 3 -85 15 -85 11 0 15 12 15 49 0 31 5 51 13 54 27
9 37 -6 37 -54 0 -37 4 -49 15 -49 11 0 15 11 15 43 0 55 -24 91 -56 84 -20
-3 -24 0 -24 19 0 15 -6 24 -15 24 -12 0 -15 -16 -15 -85z"/>
<path d="M3123 618 c-6 -18 -20 -57 -32 -85 -16 -40 -17 -53 -7 -53 7 0 18 11
24 25 9 20 19 25 47 25 29 0 36 -4 41 -25 3 -14 12 -25 20 -25 19 0 18 4 -17
93 -35 86 -58 100 -76 45z m45 -35 c10 -31 10 -33 -14 -33 -27 0 -29 6 -14 46
12 31 13 30 28 -13z"/>
<path d="M3740 640 c0 -5 7 -10 15 -10 8 0 15 5 15 10 0 6 -7 10 -15 10 -8 0
-15 -4 -15 -10z"/>
<path d="M3928 623 c-2 -10 -2 -45 1 -78 5 -53 9 -60 29 -63 12 -2 22 1 22 7
0 6 -4 11 -10 11 -5 0 -10 20 -10 45 0 25 4 45 9 45 5 0 4 11 -2 25 -14 29
-33 33 -39 8z"/>
<path d="M1317 598 c-27 -21 -32 -70 -10 -97 22 -28 67 -31 91 -7 22 21 7 32
-22 16 -26 -13 -56 -8 -56 10 0 5 20 10 45 10 41 0 45 2 45 24 0 26 -33 56
-60 56 -9 0 -24 -6 -33 -12z m61 -26 c2 -8 -8 -12 -30 -12 -31 1 -32 1 -13 15
21 17 37 15 43 -3z"/>
<path d="M1447 592 c-21 -23 -22 -85 -2 -102 28 -23 95 -8 95 21 0 5 -7 9 -15
9 -8 0 -15 -4 -15 -10 0 -16 -47 -12 -54 5 -4 12 4 15 39 15 41 0 45 2 45 23
0 49 -61 74 -93 39z m63 -17 c11 -13 7 -15 -26 -15 -36 1 -38 2 -20 15 25 19
31 19 46 0z"/>
<path d="M1560 600 c0 -24 43 -120 54 -120 7 0 20 24 31 53 10 28 20 58 23 66
3 8 0 12 -8 9 -7 -2 -20 -24 -30 -48 -18 -46 -21 -45 -39 13 -11 33 -31 51
-31 27z"/>
<path d="M1700 595 c-17 -21 -6 -29 20 -15 16 9 25 8 37 -2 14 -11 11 -14 -22
-24 -43 -12 -61 -33 -52 -58 5 -12 19 -16 59 -15 l53 1 -4 52 c-1 28 -8 57
-13 64 -14 17 -63 15 -78 -3z m60 -75 c-12 -23 -50 -27 -50 -6 0 13 10 17 53
25 4 0 3 -8 -3 -19z"/>
<path d="M1820 543 c0 -49 3 -63 15 -63 11 0 15 12 15 49 0 31 5 51 13 54 27
9 37 -6 37 -54 0 -37 4 -49 15 -49 19 0 20 64 2 100 -10 20 -20 25 -55 26
l-42 1 0 -64z"/>
<path d="M1964 593 c-20 -20 -1 -32 21 -13 16 13 45 7 45 -9 0 -6 -18 -15 -41
-21 -36 -10 -40 -14 -37 -38 3 -25 6 -27 56 -28 l52 -1 0 48 c0 53 -18 79 -55
79 -13 0 -31 -8 -41 -17z m62 -78 c-3 -10 -15 -15 -28 -13 -29 4 -26 21 4 29
28 7 32 4 24 -16z"/>
<path d="M2090 543 c0 -35 4 -63 10 -63 6 0 10 20 10 45 0 33 5 47 18 54 27
15 42 -5 42 -56 0 -24 5 -43 10 -43 15 0 12 106 -2 118 -7 6 -30 10 -50 9
l-38 -1 0 -63z"/>
<path d="M2685 594 c-22 -22 -10 -30 20 -14 20 11 28 11 38 1 9 -9 9 -14 -3
-21 -8 -5 -22 -10 -31 -10 -22 0 -41 -25 -37 -47 3 -14 14 -18 56 -19 l52 -1
0 52 c0 28 -5 56 -12 63 -17 17 -64 15 -83 -4z m61 -79 c-3 -10 -15 -15 -28
-13 -29 4 -26 21 4 29 28 7 32 4 24 -16z"/>
<path d="M3255 594 c-22 -22 -15 -36 28 -57 43 -22 48 -37 12 -37 -14 0 -25 5
-25 10 0 6 -7 10 -15 10 -8 0 -15 -4 -15 -8 0 -33 82 -45 99 -14 13 25 -3 49
-39 57 -30 7 -38 19 -20 30 5 3 18 0 29 -7 27 -16 41 0 17 18 -26 18 -51 18
-71 -2z"/>
<path d="M3375 594 c-22 -22 -15 -36 28 -57 43 -22 48 -37 12 -37 -14 0 -25 5
-25 10 0 6 -7 10 -15 10 -8 0 -15 -4 -15 -8 0 -33 82 -45 99 -14 13 25 -3 49
-39 57 -30 7 -38 19 -20 30 5 3 18 0 29 -7 27 -16 41 0 17 18 -26 18 -51 18
-71 -2z"/>
<path d="M3500 590 c-24 -24 -26 -72 -4 -94 21 -22 67 -20 87 2 35 38 6 112
-43 112 -11 0 -29 -9 -40 -20z m58 -9 c8 -5 12 -22 10 -42 -2 -29 -7 -34 -28
-34 -21 0 -26 5 -28 34 -3 30 9 51 28 51 3 0 11 -4 18 -9z"/>
<path d="M3643 602 c-21 -14 -33 -60 -23 -87 17 -44 80 -53 100 -14 13 23 -9
39 -22 15 -5 -9 -17 -16 -27 -16 -32 0 -43 58 -16 80 13 10 19 9 35 -5 23 -21
39 -12 24 13 -12 19 -52 27 -71 14z"/>
<path d="M3746 603 c-3 -3 -6 -33 -6 -65 0 -45 3 -58 15 -58 12 0 15 13 15 59
0 56 -9 79 -24 64z"/>
<path d="M3805 590 c-14 -16 -15 -20 -4 -20 8 0 20 5 26 11 13 13 43 5 43 -10
0 -6 -14 -14 -32 -19 -36 -9 -54 -32 -45 -56 5 -13 18 -16 57 -15 l50 2 0 52
c0 28 -5 56 -12 63 -19 19 -63 14 -83 -8z m61 -75 c-3 -10 -15 -15 -28 -13
-29 4 -26 21 4 29 28 7 32 4 24 -16z"/>
<path d="M4012 594 c-15 -10 -22 -25 -22 -48 0 -43 20 -68 54 -68 29 0 65 26
53 39 -4 3 -13 1 -19 -5 -16 -16 -43 -15 -58 2 -10 13 -4 15 37 18 45 3 48 5
45 28 -5 46 -49 63 -90 34z m58 -19 c11 -13 8 -15 -19 -15 -31 0 -42 14 -18
23 20 9 24 8 37 -8z"/>
<path d="M4136 594 c-21 -21 -6 -49 34 -62 36 -13 39 -32 5 -32 -14 0 -25 5
-25 10 0 6 -7 10 -15 10 -8 0 -15 -4 -15 -8 0 -33 82 -45 99 -14 13 25 -3 49
-39 57 -30 7 -38 19 -20 30 5 3 18 0 29 -7 25 -15 39 -4 21 17 -16 20 -54 19
-74 -1z"/>
<path d="M661 459 c-1 -8 6 -24 15 -35 15 -19 15 -19 6 1 -5 11 -12 27 -15 35
-5 13 -6 13 -6 -1z"/>
<path d="M733 392 c-10 -6 -8 -20 8 -62 36 -96 47 -110 79 -110 28 0 41 14 21
22 -5 2 -25 38 -45 81 -35 77 -41 83 -63 69z"/>
<path d="M1317 383 c150 -2 396 -2 545 0 150 1 28 2 -272 2 -300 0 -422 -1
-273 -2z"/>
<path d="M2927 383 c282 -2 744 -2 1025 0 282 1 52 2 -512 2 -564 0 -794 -1
-513 -2z"/>
<path d="M1484 308 c-74 -35 -46 -171 34 -171 33 0 72 27 72 50 0 19 -13 16
-33 -7 -22 -26 -63 -26 -77 -1 -14 27 -13 84 2 99 17 17 67 15 74 -3 4 -8 12
-15 20 -15 26 0 12 30 -23 49 -26 13 -41 13 -69 -1z"/>
<path d="M1620 225 c0 -50 4 -85 10 -85 6 0 10 20 10 44 0 26 6 48 15 56 25
20 45 -5 45 -56 0 -24 5 -44 10 -44 6 0 10 24 10 54 0 61 -16 82 -55 72 -22
-6 -25 -3 -25 19 0 14 -4 25 -10 25 -6 0 -10 -35 -10 -85z"/>
<path d="M1973 290 c-9 -21 -17 -25 -49 -25 l-39 0 -3 -63 c-2 -51 0 -62 13
-62 11 0 15 11 15 45 0 40 3 47 26 55 14 6 27 10 29 10 2 0 5 -24 7 -52 3 -48
5 -53 28 -56 23 -2 24 -1 8 11 -21 17 -25 92 -5 100 9 4 9 8 1 14 -7 4 -14 17
-16 28 -5 18 -6 18 -15 -5z"/>
<path d="M2460 285 c0 -22 -3 -24 -29 -19 -22 5 -32 1 -45 -17 -37 -54 -8
-109 57 -109 l37 0 0 85 c0 50 -4 85 -10 85 -5 0 -10 -11 -10 -25z m-4 -72 c8
-29 -16 -59 -40 -50 -19 8 -22 73 -3 80 21 7 37 -4 43 -30z"/>
<path d="M2587 243 c-14 -37 -29 -76 -33 -85 -4 -12 -1 -18 9 -18 8 0 18 11
21 25 5 21 12 25 45 25 33 0 40 -4 45 -25 6 -22 37 -38 35 -17 -2 27 -68 157
-80 160 -11 2 -23 -17 -42 -65z m58 -5 c6 -24 4 -28 -14 -28 -22 0 -25 10 -15
48 8 27 20 19 29 -20z"/>
<path d="M3368 283 c-9 -18 -13 -33 -8 -33 5 0 10 -24 12 -52 3 -46 6 -53 26
-56 12 -2 22 1 22 7 0 6 -7 11 -15 11 -19 0 -21 86 -2 93 9 4 9 8 1 14 -7 4
-13 17 -16 28 -3 17 -6 15 -20 -12z"/>
<path d="M3698 283 c-2 -10 -2 -45 1 -78 5 -53 9 -60 29 -63 12 -2 22 1 22 7
0 6 -4 11 -10 11 -5 0 -10 20 -10 45 0 25 4 45 9 45 5 0 4 11 -2 25 -14 29
-33 33 -39 8z"/>
<path d="M1765 257 c-10 -8 -15 -19 -11 -26 6 -9 13 -8 27 5 10 9 25 14 34 11
26 -11 17 -26 -20 -33 -49 -9 -66 -41 -35 -66 12 -10 27 -15 32 -11 6 3 24 6
41 5 l30 -1 -6 56 c-3 31 -12 60 -19 64 -20 13 -52 11 -73 -4z m63 -74 c-2
-11 -14 -19 -31 -21 -33 -4 -36 15 -4 28 33 13 39 12 35 -7z"/>
<path d="M2047 258 c-27 -21 -32 -70 -10 -97 22 -28 67 -31 91 -7 22 21 7 32
-22 16 -26 -13 -56 -8 -56 10 0 5 20 10 45 10 41 0 45 2 45 23 0 46 -56 72
-93 45z m61 -26 c2 -8 -8 -12 -30 -12 -31 1 -32 1 -13 15 21 17 37 15 43 -3z"/>
<path d="M2165 261 c-3 -2 -5 -31 -5 -63 0 -45 3 -58 15 -58 11 0 15 12 15 46
0 38 4 47 20 51 29 8 19 28 -14 28 -15 1 -29 -1 -31 -4z"/>
<path d="M2257 252 c-21 -23 -22 -85 -2 -102 19 -16 61 -16 80 0 19 16 19 30
0 30 -8 0 -15 -4 -15 -10 0 -16 -47 -12 -53 4 -5 12 5 16 41 18 41 3 47 6 44
23 -9 51 -64 72 -95 37z m63 -17 c11 -13 8 -15 -19 -15 -31 0 -42 14 -18 23
20 9 24 8 37 -8z"/>
<path d="M2736 251 c-26 -28 -18 -92 12 -107 30 -15 60 -7 73 18 14 26 1 38
-15 15 -19 -26 -54 -22 -62 7 -12 47 33 88 54 50 5 -10 14 -14 21 -9 9 5 8 12
-5 26 -22 24 -56 24 -78 0z"/>
<path d="M2856 251 c-26 -28 -18 -92 12 -107 30 -15 60 -7 73 18 14 26 1 38
-15 15 -19 -26 -54 -22 -62 7 -12 47 33 88 54 50 5 -10 14 -14 21 -9 9 5 8 12
-5 26 -22 24 -56 24 -78 0z"/>
<path d="M2977 252 c-21 -23 -22 -85 -2 -102 44 -37 112 7 101 65 -11 53 -66
73 -99 37z m62 -16 c7 -8 11 -27 9 -43 -2 -21 -9 -29 -27 -31 -13 -2 -28 2
-32 10 -29 45 17 104 50 64z"/>
<path d="M3102 208 l3 -63 48 -1 47 -2 0 64 c0 36 -4 64 -10 64 -5 0 -10 -19
-10 -42 0 -52 -11 -71 -36 -66 -15 2 -20 14 -22 56 -2 28 -8 52 -13 52 -6 0
-9 -26 -7 -62z"/>
<path d="M3234 261 c-2 -2 -4 -31 -4 -63 0 -45 3 -58 15 -58 11 0 15 12 15 49
0 35 4 51 16 55 26 10 34 -3 34 -55 0 -39 3 -49 16 -49 14 0 16 9 12 56 -3 33
-11 59 -19 65 -14 8 -76 8 -85 0z"/>
<path d="M3445 257 c-10 -8 -15 -19 -11 -26 6 -9 13 -8 27 5 10 9 25 14 34 11
26 -11 17 -26 -20 -33 -48 -9 -66 -41 -36 -65 17 -14 28 -16 46 -9 14 5 32 7
40 4 22 -9 21 88 -1 110 -19 20 -54 21 -79 3z m63 -74 c-2 -11 -14 -19 -31
-21 -33 -4 -36 15 -4 28 33 13 39 12 35 -7z"/>
<path d="M3564 261 c-2 -2 -4 -31 -4 -63 0 -45 3 -58 15 -58 11 0 15 12 15 44
0 44 19 74 40 61 5 -3 10 -28 10 -56 0 -37 4 -49 15 -49 24 0 21 106 -4 119
-17 10 -78 11 -87 2z"/>
<path d="M3776 257 c-26 -19 -16 -49 21 -61 18 -6 33 -15 33 -21 1 -15 -29
-18 -46 -4 -17 14 -29 6 -21 -16 7 -16 62 -21 85 -6 25 16 10 55 -25 65 -18 5
-33 12 -33 17 0 15 21 21 35 9 23 -19 41 -7 21 13 -21 20 -46 22 -70 4z"/>
</g>
</svg>
